Coordinates
version=1
nRows=38
nColumns=12
inDegrees=yes

Units are S.I. units (second, meters, Newtons, ...)
Angles are in degrees

endheader
time	SC_y	SC_z	SC_x	AC_y	AC_z	AC_x	GH_y	GH_z	GH_yy	EL_x	PS_y
       0.0              -13.29         -4.806          54.42          62.46           7.83          13.22          46.52          45.79         -119.6          25.15          148.5
   0.01313               -13.3         -4.801          54.41          62.46          7.828          13.21          46.48          45.79         -119.6          25.16          148.5
   0.02626               -13.3         -4.795           54.4          62.46          7.826          13.21          46.45           45.8         -119.6          25.17          148.4
   0.03939              -13.31         -4.789          54.39          62.46          7.824          13.21          46.41           45.8         -119.6          25.18          148.4
   0.05252              -13.32         -4.783          54.39          62.46          7.822          13.21          46.37          45.81         -119.6           25.2          148.4
   0.06565              -13.33         -4.776          54.38          62.46          7.819           13.2          46.33          45.81         -119.6          25.21          148.4
   0.07878              -13.33         -4.769          54.37          62.46          7.817           13.2          46.29          45.82         -119.6          25.22          148.3
   0.09191              -13.34         -4.761          54.36          62.46          7.814           13.2          46.24          45.82         -119.6          25.24          148.3
     0.105              -13.35         -4.753          54.35          62.46          7.811          13.19          46.19          45.83         -119.6          25.25          148.3
    0.1182              -13.36         -4.744          54.34          62.46          7.808          13.19          46.13          45.84         -119.6          25.27          148.3
    0.1313              -13.37         -4.735          54.32          62.46          7.804          13.18          46.07          45.84         -119.6          25.29          148.2
    0.1444              -13.39         -4.725          54.31          62.45            7.8          13.18          46.01          45.85         -119.6          25.31          148.2
    0.1576               -13.4         -4.714          54.29          62.45          7.796          13.18          45.94          45.86         -119.6          25.33          148.2
    0.1707              -13.41         -4.702          54.28          62.45          7.792          13.17          45.87          45.87         -119.6          25.35          148.1
    0.1838              -13.43         -4.689          54.26          62.45          7.787          13.16          45.79          45.88         -119.6          25.38          148.1
     0.197              -13.44         -4.675          54.24          62.45          7.782          13.16           45.7          45.89         -119.6           25.4          148.0
    0.2101              -13.46          -4.66          54.22          62.45          7.777          13.15          45.61           45.9         -119.7          25.43          148.0
    0.2232              -13.48         -4.643           54.2          62.44          7.771          13.14          45.51          45.92         -119.7          25.47          147.9
    0.2363               -13.5         -4.625          54.18          62.44          7.764          13.14          45.39          45.93         -119.7           25.5          147.9
    0.2495              -13.52         -4.606          54.15          62.44          7.757          13.13          45.27          45.95         -119.7          25.54          147.8
    0.2626              -13.55         -4.584          54.12          62.44          7.749          13.12          45.14          45.96         -119.7          25.58          147.7
    0.2757              -13.57          -4.56          54.09          62.43           7.74          13.11          44.99          45.98         -119.7          25.63          147.6
    0.2889               -13.6         -4.534          54.06          62.43          7.731           13.1          44.83           46.0         -119.7          25.68          147.6
     0.302              -13.64         -4.504          54.02          62.43           7.72          13.08          44.64          46.03         -119.7          25.73          147.5
    0.3151              -13.68         -4.472          53.97          62.42          7.708          13.07          44.44          46.05         -119.7           25.8          147.3
    0.3283              -13.72         -4.436          53.93          62.42          7.695          13.05          44.22          46.08         -119.7          25.87          147.2
    0.3414              -13.76         -4.395          53.87          62.41          7.681          13.03          43.97          46.11         -119.8          25.95          147.1
    0.3545              -13.82          -4.35          53.81          62.41          7.664          13.01          43.68          46.15         -119.8          26.03          146.9
    0.3676              -13.87         -4.298          53.74           62.4          7.645          12.99          43.36          46.19         -119.8          26.13          146.8
    0.3808              -13.94         -4.239          53.67          62.39          7.624          12.96           43.0          46.24         -119.8          26.25          146.6
    0.3939              -14.02         -4.173          53.58          62.39            7.6          12.93          42.59          46.29         -119.8          26.37          146.3
     0.407              -14.11         -4.096          53.48          62.38          7.572           12.9          42.11          46.35         -119.9          26.52          146.1
    0.4202              -14.21         -4.007          53.36          62.37           7.54          12.86          41.56          46.42         -119.9          26.69          145.8
    0.4333              -14.33         -3.904          53.22          62.35          7.502          12.82          40.92           46.5         -119.9          26.89          145.4
    0.4464              -14.46         -3.784          53.07          62.34          7.458          12.76          40.18           46.6         -120.0          27.13          145.0
    0.4596              -14.63         -3.642          52.88          62.32          7.407           12.7           39.3          46.71         -120.1           27.4          144.6
    0.4727              -14.82         -3.473          52.65           62.3          7.345          12.62          38.25          46.85         -120.1          27.73          144.0
    0.4858              -15.05         -3.271          52.39          62.27          7.272          12.53           37.0          47.01         -120.2          28.12          143.3
